<?xml version="1.0" standalone="no"?><!DOCTYPE svg PUBLIC "-//W3C//DTD SVG 1.1//EN" "http://www.w3.org/Graphics/SVG/1.1/DTD/svg11.dtd"><svg t="1560601610898" class="icon" style="" viewBox="0 0 1024 1024" version="1.1" xmlns="http://www.w3.org/2000/svg" p-id="4722" xmlns:xlink="http://www.w3.org/1999/xlink" width="32" height="32"><defs><style type="text/css"></style></defs><path d="M984.448 960 39.552 960c-8.832 0-16-7.168-16-16s7.168-16 16-16l944.896 0c8.832 0 16 7.168 16 16S993.28 960 984.448 960z" p-id="4723"></path><path d="M672 876.032c-8.832 0-16-7.168-16-16L656 68.032c0-8.832 7.168-16 16-16s16 7.168 16 16l0 792C688 868.8 680.832 876.032 672 876.032z" p-id="4724"></path><path d="M496 876.032c-8.832 0-16-7.168-16-16L480 356.032c0-8.832 7.168-16 16-16S512 347.2 512 356.032l0 504C512 868.8 504.832 876.032 496 876.032z" p-id="4725"></path><path d="M160 876.032c-8.832 0-16-7.168-16-16L144 276.032c0-8.832 7.168-16 16-16s16 7.168 16 16l0 584C176 868.8 168.832 876.032 160 876.032z" p-id="4726"></path><path d="M836.032 876.032c-8.832 0-16-7.168-16-16l0-672c0-8.832 7.168-16 16-16s16 7.168 16 16l0 672C852.032 868.8 844.8 876.032 836.032 876.032z" p-id="4727"></path><path d="M332.032 876.032c-8.832 0-16-7.168-16-16l0-336c0-8.832 7.168-16 16-16s16 7.168 16 16l0 336C348.032 868.8 340.864 876.032 332.032 876.032z" p-id="4728"></path></svg>