<?xml version="1.0" standalone="no"?><!DOCTYPE svg PUBLIC "-//W3C//DTD SVG 1.1//EN" "http://www.w3.org/Graphics/SVG/1.1/DTD/svg11.dtd"><svg t="1560601761720" class="icon" style="" viewBox="0 0 1024 1024" version="1.1" xmlns="http://www.w3.org/2000/svg" p-id="6262" xmlns:xlink="http://www.w3.org/1999/xlink" width="32" height="32"><defs><style type="text/css"></style></defs><path d="M429.146479 485.603817c54.380538 3.02694 111.721501 3.111874 146.405441 25.836435-65.869197 34.600029-145.228639 55.726186-180.854021 120.57003 34.827203 7.013741 82.142835-5.298679 129.181151-8.612145 31.706119-2.228761 112.781646 8.207939 86.120426-8.612145-44.187385-1.732457-99.509365 7.653307-120.569006-17.22429 57.104579-37.619806 122.873492-66.592674 163.629731-120.57003C586.333474 482.137879 453.065238 466.326774 429.146479 485.603817z" p-id="6263" fill="#8a8a8a"></path><path d="M515.266905 60.800761c-249.229295 0-451.278033 202.047716-451.278033 451.278033s202.047716 451.278033 451.278033 451.278033c249.230318 0 451.278033-202.047716 451.278033-451.278033S764.497223 60.800761 515.266905 60.800761zM653.060201 598.548168c27.652803 24.062022 12.666484 113.281019 34.44858 181.842535-2.876514 0-5.735631 0-8.612145 0-44.843324-33.769105-110.174262-50.579979-155.017586-86.120426-62.209854 23.918759-119.627565 52.351322-172.241876 86.120426-2.876514 0-5.735631 0-8.612145 0 10.007935-68.561515 19.36914-130.893142 34.44858-190.45468-46.088688-45.768393-100.620675-84.180238-137.793296-138.880047 69.334111 3.313465 111.51991-20.47124 180.854021-17.174148 37.728276-51.252291 56.828286-121.125685 94.732571-172.217317 37.904285 51.092655 57.005318 121.002888 94.732571 172.255179 66.307172 2.589988 127.281895 10.420327 180.854021 25.743314C745.540476 506.205017 692.521958 546.152844 653.060201 598.548168z" p-id="6264" fill="#8a8a8a"></path></svg>