<?xml version="1.0" standalone="no"?><!DOCTYPE svg PUBLIC "-//W3C//DTD SVG 1.1//EN" "http://www.w3.org/Graphics/SVG/1.1/DTD/svg11.dtd"><svg t="1560601828269" class="icon" style="" viewBox="0 0 1024 1024" version="1.1" xmlns="http://www.w3.org/2000/svg" p-id="7102" xmlns:xlink="http://www.w3.org/1999/xlink" width="32" height="32"><defs><style type="text/css"></style></defs><path d="M485.239808 187.300864c14.732288-31.249408 38.844416-31.249408 53.574656 0l63.81568 135.328768c14.731264 31.246336 54.846464 61.080576 89.124864 66.291712l137.843712 20.959232c34.277376 5.210112 42.508288 29.689856 18.29888 54.396928l-101.89824 103.948288c-24.22784 24.70912-39.469056 72.802304-33.888256 106.867712l24.547328 149.732352c5.581824 34.071552-14.67904 48.282624-45.031424 31.578112l-124.418048-68.463616c-30.352384-16.69632-80.014336-16.69632-110.36672 0l-124.425216 68.463616c-30.345216 16.704512-50.61632 2.494464-45.027328-31.578112l24.532992-149.732352c5.588992-34.066432-9.662464-82.159616-33.881088-106.867712l-101.879808-103.94624c-24.218624-24.707072-15.987712-49.18784 18.295808-54.397952l137.84064-20.959232c34.28352-5.210112 74.390528-35.045376 89.122816-66.291712L485.239808 187.300864z" fill="#FFA12E" p-id="7103"></path></svg>