<?xml version="1.0" standalone="no"?><!DOCTYPE svg PUBLIC "-//W3C//DTD SVG 1.1//EN" "http://www.w3.org/Graphics/SVG/1.1/DTD/svg11.dtd"><svg t="1560602251082" class="icon" style="" viewBox="0 0 1028 1024" version="1.1" xmlns="http://www.w3.org/2000/svg" p-id="7853" xmlns:xlink="http://www.w3.org/1999/xlink" width="32.125" height="32"><defs><style type="text/css"></style></defs><path d="M514.554 62C265.845 62 64.27 262.379 64.27 509.598s201.586 447.594 450.283 447.594c248.674 0 450.261-200.375 450.261-447.594C964.815 262.387 763.227 62 514.553 62z m-0.075 837.037c-214.814 0-388.955-174.142-388.955-388.955 0-214.814 174.142-388.955 388.955-388.955s388.955 174.142 388.955 388.955c0 214.814-174.142 388.955-388.955 388.955z m-234.255-391.59c0 31.312 25.384 56.695 56.695 56.695s56.695-25.384 56.695-56.695c0-31.312-25.384-56.695-56.695-56.695-31.312 0-56.695 25.384-56.695 56.695z m189.862 0c0 31.312 25.384 56.695 56.695 56.695s56.695-25.384 56.695-56.695c0-31.312-25.384-56.695-56.695-56.695-31.312 0-56.695 25.384-56.695 56.695z m171.404 0c0 31.312 25.384 56.695 56.695 56.695s56.695-25.384 56.695-56.695c0-31.312-25.384-56.695-56.695-56.695-31.312 0-56.695 25.384-56.695 56.695z" p-id="7854" fill="#8a8a8a"></path></svg>