<?xml version="1.0" standalone="no"?><!DOCTYPE svg PUBLIC "-//W3C//DTD SVG 1.1//EN" "http://www.w3.org/Graphics/SVG/1.1/DTD/svg11.dtd"><svg t="1560601654459" class="icon" style="" viewBox="0 0 1024 1024" version="1.1" xmlns="http://www.w3.org/2000/svg" p-id="5464" xmlns:xlink="http://www.w3.org/1999/xlink" width="32" height="32"><defs><style type="text/css"></style></defs><path d="M695.519734 614.268198c80.379679-60.198034 130.266879-158.88773 122.31886-268.729417C806.888194 194.21226 685.853583 73.17765 534.526039 62.22725 346.977549 48.65514 191.939497 203.693192 205.511607 391.241682c6.597255 91.173512 53.165874 171.33625 122.232902 223.066425C195.111746 677.209716 99.809193 806.009174 84.160795 958.425516c-0.222057 2.166339 1.493004 4.050246 3.671623 4.050246l54.365188 0c1.86958 0 3.431146-1.403976 3.650133-3.261277 16.962324-143.764288 116.713188-262.162862 250.262834-306.252009 28.971845 11.763928 60.137659 19.234063 92.712565 21.590737 49.151443 3.557012 96.066963-4.472871 138.302903-21.627577 133.605927 44.059472 233.407957 162.484651 250.375397 306.288848 0.218988 1.857301 1.780553 3.261277 3.650133 3.261277l54.365188 0c2.177596 0 3.89368-1.882883 3.671623-4.050246C923.536914 805.976428 828.196499 677.154457 695.519734 614.268198zM266.197758 376.017956c-4.343935-142.410454 110.694101-257.44849 253.104555-253.104555 129.575124 3.953032 233.897098 108.275006 237.85013 237.85013 3.035126 99.498108-52.212152 185.619558-134.346801 227.015364-0.480954 0.034792-0.955768 0.156566-1.393743 0.375553-28.883841 14.45113-61.009516 23.3805-94.998631 25.394367-0.031722 0.002047-0.063445 0.004093-0.095167 0.00614-2.175549 0.127913-4.360308 0.218988-6.550183 0.289596-0.35918 0.011256-0.717338 0.027629-1.076518 0.036839-1.910513 0.053212-3.828188 0.074701-5.748934 0.084934-0.536212 0.002047-1.069355 0.014326-1.606591 0.013303-1.978051-0.00307-3.947915-0.037862-5.913687-0.086981-0.411369-0.010233-0.819668-0.00921-1.232061-0.021489-2.264577-0.067538-4.520967-0.170892-6.769171-0.299829-0.63752-0.036839-1.270946-0.086981-1.906419-0.127913-1.623987-0.105401-3.244904-0.221034-4.859681-0.358157-0.771573-0.065492-1.540076-0.13917-2.309602-0.211824-1.5104-0.14224-3.016707-0.297782-4.51892-0.467651-0.753153-0.084934-1.505283-0.169869-2.25639-0.261966-1.62501-0.198521-3.242857-0.416486-4.857635-0.64673-0.586354-0.083911-1.175779-0.159636-1.76111-0.24764-4.455475-0.668219-8.872065-1.456165-13.245675-2.360767-0.474814-0.098237-0.946558-0.205685-1.420349-0.305969-1.714038-0.36532-3.422959-0.744967-5.122671-1.146103-0.580215-0.137123-1.158383-0.278339-1.737574-0.418532-1.647523-0.401136-3.288906-0.818645-4.924149-1.252527-0.51984-0.138146-1.039679-0.274246-1.558495-0.415462-1.889023-0.514723-3.76986-1.050935-5.640464-1.610684-0.224104-0.066515-0.449231-0.128937-0.673335-0.196475-4.355191-1.314948-8.659217-2.7486-12.909008-4.294816-0.274246-0.100284-0.547469-0.204661-0.821715-0.304945-1.814322-0.667196-3.618411-1.355881-5.412266-2.064009-0.376577-0.149403-0.753153-0.299829-1.12973-0.450255-1.768273-0.709151-3.527336-1.437745-5.275143-2.186805-0.289596-0.12382-0.580215-0.245593-0.86981-0.370437-4.15053-1.796926-8.243755-3.700275-12.271488-5.716188-0.01228-0.00614-0.025583-0.00921-0.036839-0.014326C323.509045 548.903491 269.032316 468.959741 266.197758 376.017956z" p-id="5465"></path></svg>