<?xml version="1.0" encoding="utf-8"?>
<svg version="1.1" xmlns:xlink="http://www.w3.org/1999/xlink" width="15px" height="15px" xmlns="http://www.w3.org/2000/svg">
  <g transform="matrix(1 0 0 1 -191 -89 )">
    <path d="M 199.5 89.5  L 197.5 89.5  L 197.5 95.5  L 191.5 95.5  L 191.5 97.5  L 197.5 97.5  L 197.5 103.5  L 199.5 103.5  L 199.5 97.5  L 205.5 97.5  L 205.5 95.5  L 199.5 95.5  L 199.5 89.5  Z " fill-rule="nonzero" fill="#ffffff" stroke="none" />
    <path d="M 199.5 89.5  L 197.5 89.5  L 197.5 95.5  L 191.5 95.5  L 191.5 97.5  L 197.5 97.5  L 197.5 103.5  L 199.5 103.5  L 199.5 97.5  L 205.5 97.5  L 205.5 95.5  L 199.5 95.5  L 199.5 89.5  Z " stroke-width="1" stroke="#797979" fill="none" />
  </g>
</svg>